<svg clip-rule="evenodd" fill-rule="evenodd" y="0px" x="0px" viewBox="900 960 58800 59100" style="max-height: 500px" version="1.1" xml:space="preserve" xmlns:xlink="http://www.w3.org/1999/xlink" xmlns="http://www.w3.org/2000/svg" width="58800" height="59100"><defs><style type="text/css">
   
    .fil0 {fill:black;fill-rule:nonzero}
   
  </style></defs><g><path d="M20388 15749l9380 3c36,-199 72,-391 109,-577 -694,-164 -1567,-56 -2441,52 -1942,240 -3884,480 -4810,-1751 -206,-496 -205,-678 -202,-1118 1,-111 -1,218 -1,-143l0 -1327c0,-267 217,-484 484,-484 46,0 91,6 133,18 439,90 892,145 1341,199 1932,235 3792,461 5762,3331 72,-300 145,-577 218,-831 394,-1373 820,-2124 1193,-2300 356,-168 693,-255 990,-124 300,133 505,459 560,1100l-2 0c3,34 0,69 -9,103 1627,-1754 3480,-2285 5190,-2584 -9,-386 -18,-717 -28,-1075 -7,-259 -15,-533 -24,-900 -7,-285 -14,-520 -58,-717 -39,-175 -114,-344 -261,-539 -881,-1167 -1872,-2022 -2914,-2619 -1156,-663 -2377,-1009 -3581,-1111 -401,-34 -908,-51 -1417,-51 -509,0 -1016,17 -1417,51 -1160,99 -2335,423 -3452,1038 -1010,556 -1976,1351 -2842,2433 -498,621 -505,932 -521,1703 -46,2046 -94,4092 -140,6138 -5,251 -201,453 -446,471l0 1c-586,44 -1497,-25 -2328,-87 -795,-60 -1509,-113 -1591,-78 -238,101 -400,217 -468,336 -24,42 -29,86 -11,131 41,103 153,222 348,355 550,375 1589,726 3257,953zm9217 967l-7996 -3 -133 963c-37,264 -280,448 -544,412 -7,-1 -15,-2 -22,-4 -376,-59 -636,69 -801,316 -170,255 -270,626 -308,1061 -42,472 -11,1012 79,1567 276,1692 1072,3462 2010,3742 93,28 172,81 230,150 579,619 835,1701 1092,2783 120,508 241,1016 386,1439 44,131 29,267 -30,380 -51,104 -102,207 -154,310 365,319 733,663 1108,1013 526,491 1064,994 1606,1440 2576,2121 5683,3304 10489,-2397 -65,-126 -128,-253 -191,-382 -57,-119 -62,-249 -22,-364l0 0c145,-424 265,-932 386,-1439 260,-1094 519,-2189 1112,-2805 60,-62 133,-105 210,-128l0 -1c939,-280 1735,-2050 2010,-3742 90,-555 121,-1095 79,-1567 -39,-435 -138,-805 -308,-1061 -166,-250 -430,-378 -811,-315 -263,43 -511,-136 -553,-399l-2 -11 0 0 -129 -934 -776 15c-85,365 -184,1107 457,2751 96,248 -28,527 -276,623 -124,48 -255,41 -368,-8l0 1c-540,-238 -1078,-371 -1598,-499 -1621,-400 -3087,-763 -4304,-3612 -45,192 -88,385 -132,578 -87,384 -174,767 -268,1147 1082,232 2050,762 2808,1497 1040,1008 1683,2401 1683,3940 0,1539 -643,2932 -1683,3940 -1036,1005 -2466,1627 -4043,1627 -1577,0 -3007,-622 -4043,-1627 -1040,-1008 -1683,-2401 -1683,-3940 0,-972 258,-1888 711,-2686 469,-825 1145,-1522 1959,-2022 448,-275 940,-492 1465,-639 375,-105 764,-174 1164,-203 44,-314 90,-616 136,-906zm9953 -959c1700,-227 2756,-581 3312,-960 195,-133 307,-252 348,-355 18,-44 13,-89 -11,-131 -68,-119 -230,-235 -468,-336 -83,-35 -796,19 -1591,78 -1610,121 -4670,284 -6141,102 -903,-112 -1806,-223 -2511,-35l0 0c-247,66 -749,495 -573,584l0 -1c2861,1459 4684,1109 7636,1053zm-9026 1884c100,-396 189,-789 278,-1183 359,-1587 719,-3175 1682,-4705 -36,-316 -104,-463 -191,-502 -99,-44 -278,17 -490,117 -223,105 -527,726 -869,1920 -298,1038 -597,2469 -862,4322 153,5 304,15 453,31zm8847 -4453c493,-7 1115,-54 1695,-98 914,-69 1736,-130 2037,-3 438,185 760,443 933,744 172,300 203,628 68,966 -111,279 -339,551 -699,797 -698,476 -1991,912 -4043,1158l49 354c558,35 978,315 1276,762 262,393 410,917 463,1510 50,556 16,1177 -86,1805 -314,1926 -1304,3969 -2546,4463 -365,456 -581,1368 -797,2279 -108,455 -216,909 -349,1335 1115,2236 2662,4096 4750,5688l4 3c245,187 497,370 757,549 2559,1767 5860,3201 10068,4466 23,6 46,14 68,23 1639,708 2891,3288 3689,6542 882,3597 1240,8061 955,11663 -9,259 -222,466 -483,466l-22976 0 0 -2c-72,0 -146,-16 -215,-51 -238,-119 -334,-408 -215,-646l8370 -16743c-1756,-1228 -1387,-2636 -1019,-4045 143,-546 286,-1092 254,-1583 -1501,-1168 -2732,-2473 -3733,-3953 -58,1478 -212,2917 -439,4325 -1,9 -3,17 -4,26 -761,4689 -2339,9039 -3901,13345 -1037,2859 -2068,5700 -2840,8597 -68,258 -332,412 -589,344 -176,-46 -304,-185 -345,-350 -772,-2895 -1802,-5733 -2839,-8591 -2034,-5607 -4095,-11288 -4345,-17696 -1000,1479 -2232,2784 -3733,3953 -32,490 111,1037 254,1583 368,1408 737,2816 -1019,4045l8350 16703c46,74 73,162 73,255 0,267 -217,484 -484,484l-22976 0 0 0c-250,0 -462,-192 -482,-445 -287,-3606 70,-8080 953,-11683 798,-3254 2050,-5834 3689,-6542l0 0c17,-7 35,-14 53,-19 4215,-1266 7521,-2702 10083,-4471 260,-179 512,-362 757,-549l4 -3c2088,-1593 3635,-3452 4750,-5688 -134,-426 -242,-880 -349,-1335 -216,-912 -432,-1823 -797,-2279 -1242,-494 -2233,-2537 -2546,-4463 -102,-628 -136,-1249 -86,-1805 53,-593 201,-1117 463,-1510 298,-447 718,-727 1276,-762l49 -354c-2052,-246 -3345,-682 -4043,-1158 -360,-246 -588,-517 -699,-797 -135,-338 -104,-666 68,-966 173,-301 495,-558 933,-744 301,-128 1123,-66 2037,3 602,45 1247,94 1749,98l130 -5677c22,-1006 31,-1413 733,-2288 951,-1186 2014,-2060 3130,-2674 1243,-684 2549,-1045 3837,-1155 431,-37 965,-55 1496,-55 531,0 1065,18 1496,55 1338,114 2696,499 3982,1236 1150,659 2240,1598 3205,2876 238,315 362,603 431,913 64,288 72,566 80,902 8,323 17,617 24,896 9,307 17,594 25,949l55 -8c452,-68 887,-133 1274,-214l0 1c121,-25 251,-4 363,69 222,146 284,445 138,667 -641,976 -737,1265 -894,1739 -81,245 -177,535 -364,985 -127,306 -273,564 -435,784zm-9329 22567l-1990 4530c-106,244 -391,356 -635,249 -58,-25 -109,-61 -151,-104 -447,-440 -931,-819 -1414,-1199 -601,-472 -1203,-944 -1772,-1554 825,3923 2173,7642 3511,11329 849,2340 1693,4668 2400,7032 707,-2364 1551,-4692 2400,-7032 1322,-3644 2655,-7320 3482,-11193 -530,545 -1086,981 -1642,1417 -484,379 -967,759 -1414,1199 -42,43 -93,79 -151,104 -244,106 -528,-5 -635,-249l-1990 -4530zm-6351 -204c33,31 62,67 85,108 769,1318 1721,2065 2673,2812 331,260 662,520 992,807l1877 -4273c-1409,-231 -2655,-1024 -3812,-1976 -583,-480 -1124,-985 -1651,-1478 -191,-179 -381,-356 -569,-529 33,1547 177,3053 406,4528zm13000 -4296c-2271,2499 -4208,3573 -5912,3781l1863 4243c330,-287 661,-547 992,-807 933,-733 1867,-1465 2628,-2736 233,-1460 385,-2950 429,-4480zm5614 5020c-53,383 -152,762 -251,1141 -301,1151 -602,2301 954,3215 224,131 303,416 181,643l-8208 16420 21746 0c218,-3434 -135,-7575 -959,-10935 -727,-2963 -1794,-5284 -3115,-5872 -4293,-1292 -7676,-2767 -10321,-4593l-28 -19zm-24629 0l-28 19c-2644,1826 -6028,3301 -10321,4593 -1321,588 -2388,2909 -3115,5872 -824,3360 -1177,7501 -959,10935l21746 0 -8214 -16432c-114,-228 -30,-504 187,-631l0 0c1556,-914 1255,-2065 954,-3215 -99,-379 -198,-759 -251,-1141z" class="fil0"/></g><text font-family="'Helvetica Neue', Helvetica, Arial-Unicode, Arial, Sans-serif" font-weight="bold" font-size="5px" fill="#000000" y="60015" x="0">Created by Olena Panasovska</text><text font-family="'Helvetica Neue', Helvetica, Arial-Unicode, Arial, Sans-serif" font-weight="bold" font-size="5px" fill="#000000" y="60020" x="0">from the Noun Project</text></svg>