<svg xmlns="http://www.w3.org/2000/svg" version="1.1" xmlns:xlink="http://www.w3.org/1999/xlink" width="800px" height="800px"><svg xmlns="http://www.w3.org/2000/svg" version="1.1" xmlns:xlink="http://www.w3.org/1999/xlink" width="800px" height="800px"><svg fill="#000000" height="800px" width="800px" version="1.1" id="Capa_1" xmlns="http://www.w3.org/2000/svg" xmlns:xlink="http://www.w3.org/1999/xlink" viewBox="0 0 469.969 469.969" xml:space="preserve">
<g>
	<path d="M460.466,265.461c-12.671-12.669-33.29-12.67-45.962,0c-3.888,3.888-7.898,7.642-12.019,11.262v-44.075
		c0-92.36-75.14-167.5-167.5-167.5s-167.5,75.14-167.5,167.5v44.071c-4.102-3.608-8.115-7.355-12.019-11.259
		c-12.671-12.669-33.289-12.67-45.962,0c-12.672,12.672-12.672,33.29,0,45.962c60.228,60.229,140.306,93.397,225.481,93.397
		s165.253-33.169,225.481-93.397C473.137,298.751,473.137,278.133,460.466,265.461z M449.859,300.817
		c-57.395,57.395-133.706,89.004-214.875,89.004S77.505,358.212,20.11,300.817c-6.823-6.823-6.823-17.926,0-24.749
		c6.823-6.824,17.926-6.822,24.749,0c8.018,8.018,16.481,15.469,25.331,22.345c0.035,0.029,0.072,0.055,0.107,0.084
		c33.354,25.887,72.266,43.494,114.176,51.446c51.795,9.829,104.83,4.438,153.371-15.589c3.829-1.58,5.652-5.964,4.073-9.793
		c-0.014-0.034-0.032-0.065-0.046-0.098c-1.615-3.76-5.951-5.541-9.747-3.975c-84.129,34.71-178.598,21.946-249.64-31.553v-41.541
		c44.49,30.589,98.072,47.302,152.5,47.302c54.428,0,108.011-16.713,152.5-47.302v41.519c-8.378,6.298-17.135,12.079-26.229,17.289
		c-3.566,2.043-4.815,6.571-2.822,10.152c0.015,0.028,0.027,0.057,0.043,0.084c2.06,3.594,6.641,4.838,10.236,2.779
		c10.604-6.075,20.777-12.879,30.455-20.345c0.259-0.174,0.502-0.369,0.736-0.573c8.839-6.868,17.263-14.288,25.206-22.231
		c6.823-6.824,17.926-6.822,24.749,0C456.682,282.891,456.682,293.993,449.859,300.817z M234.985,80.149
		c82.855,0,150.486,66.419,152.453,148.809c-90.295,67.93-214.611,67.93-304.906,0C84.499,146.568,152.13,80.149,234.985,80.149z"></path>
	<path d="M152.485,162.609c4.135,0,7.5-3.365,7.5-7.5s-3.365-7.5-7.5-7.5s-7.5,3.365-7.5,7.5S148.349,162.609,152.485,162.609z"></path>
	<path d="M182.485,183.609c4.135,0,7.5-3.365,7.5-7.5s-3.365-7.5-7.5-7.5s-7.5,3.365-7.5,7.5S178.349,183.609,182.485,183.609z"></path>
</g>
</svg></svg><style>@media (prefers-color-scheme: light) { :root { filter: none; } }
@media (prefers-color-scheme: dark) { :root { filter: invert(100%); } }
</style></svg>